# This file uses centimeters as units for non-parametric coordinates.

mtllib rock2.mtl
g default
v 3.020595 0.039000 1.398335
v 3.330780 0.039000 0.528440
v 2.859445 0.039000 -0.366920
v 2.524570 0.039000 -1.603175
v 3.020595 0.172165 1.398335
v 3.330780 0.467695 0.528440
v 2.859445 0.467695 -0.366920
v 2.121195 0.467695 -1.351615
v 2.770775 0.896385 1.233440
v 3.080965 0.896385 0.473475
v 2.609625 0.896385 -0.311955
v 1.871375 1.489540 -1.186720
v 2.429565 1.705055 1.040815
v 2.727130 2.406580 0.409270
v 2.255790 2.523570 -0.247745
v 1.525235 1.729740 -0.872855
v 0.480200 1.627845 1.036935
v 0.514180 1.494540 0.693240
v 0.093465 1.318860 0.079280
v 0.548160 1.459150 -1.245660
v 0.106330 1.765125 1.245660
v -0.954565 1.592885 0.693240
v -0.954565 1.324595 -0.276210
v -0.183265 1.325080 -0.876050
v -1.872180 1.781640 1.065430
v -2.311585 1.325080 0.115360
v -2.789135 1.325080 -0.073170
v -1.652005 1.325080 -0.876050
v -2.164005 0.896385 1.258055
v -2.935335 0.753930 0.718620
v -3.080965 0.896385 0.128870
v -2.247720 0.757250 -0.808660
v -2.413825 0.467695 1.422950
v -3.330780 0.467695 0.559450
v -3.330780 0.467695 -0.229100
v -1.898520 0.346450 -1.021140
v -2.413825 0.039000 1.422950
v -3.330780 0.039000 0.559450
v -3.330780 0.039000 -0.142420
v -2.193655 0.039000 -1.233565
v -0.910060 0.039000 1.603175
v -1.135110 0.039000 0.812410
v -1.135110 0.039000 -0.395380
v -0.363810 0.039000 -1.233565
v 0.694730 0.039000 1.394455
v 0.694730 0.039000 0.812410
v 0.694730 0.039000 -0.395380
v 0.694730 0.039000 -1.603175
v -0.363810 0.467695 -1.233565
v 0.694730 0.467695 -1.193665
v -0.280540 0.896385 -1.068670
v 1.283300 0.629935 -1.028770
v -0.390480 0.467695 1.603175
v 0.694730 0.698630 1.394455
v -0.119665 0.896385 1.438280
v 0.611455 0.896385 1.229560
v -1.246600 1.773730 1.151715
v -0.848210 0.896385 1.344340
v -1.533925 0.753600 1.509235
v -1.693900 0.039000 1.509235
v -2.279610 0.039000 0.680555
v -2.279610 0.039000 -0.263525
v -1.317620 0.039000 -1.233565
v -1.163780 0.404495 -1.122840
v -1.305935 0.823860 -0.933140
v -0.948845 1.325080 -0.876050
v -1.910835 1.324845 -0.170375
v -1.661910 1.453290 0.392020
vt 0.875264 0.618215
vt 0.029896 0.298634
vt 0.138270 0.254990
vt 0.972160 0.656718
vt 0.156289 0.299590
vt 0.048646 0.344025
vt 0.260931 0.181208
vt 0.295939 0.245701
vt 0.184811 0.347536
vt 0.954545 0.703274
vt 0.086853 0.386478
vt 0.324571 0.370457
vt 0.267296 0.521977
vt 0.872305 0.632899
vt 0.175646 0.541536
vt 0.365178 0.416802
vt 0.925117 0.753693
vt 0.841106 0.714428
vt 0.478372 0.373466
vt 0.555837 0.501779
vt 0.840495 0.910066
vt 0.798615 0.807066
vt 0.567448 0.383312
vt 0.665032 0.443436
vt 0.574120 0.834860
vt 0.570606 0.788682
vt 0.656261 0.376239
vt 0.775881 0.443710
vt 0.783274 0.981766
vt 0.511646 0.900571
vt 0.405652 0.817079
vt 0.527537 0.771127
vt 0.877562 0.428001
vt 0.734042 0.372289
vt 0.808714 0.322858
vt 0.934471 0.397362
vt 0.374634 0.923341
vt 0.314985 0.826978
vt 0.772533 0.265355
vt 0.953860 0.328639
vt 0.665057 0.192917
vt 0.638879 0.152881
vt 0.692569 0.161044
vt 0.701822 0.198679
vt 0.640489 0.108408
vt 0.694628 0.104148
vt 0.687460 0.064352
vt 0.732392 0.065978
vt 0.778768 0.164165
vt 0.777775 0.191583
vt 0.780828 0.107268
vt 0.782887 0.050372
vt 0.903430 0.155283
vt 0.887335 0.195732
vt 0.882754 0.112301
vt 0.869087 0.053493
vt 0.631290 0.187624
vt 0.589567 0.145383
vt 0.590764 0.112320
vt 0.646192 0.062858
vt 0.805389 0.221289
vt 0.977301 0.284099
vt 0.592279 0.220995
vt 0.702923 0.222191
vt 0.683353 0.265393
vt 0.589558 0.269955
vt 0.468283 0.196401
vt 0.467036 0.263095
vt 0.698508 0.316627
vt 0.578124 0.323324
vt 0.398254 0.284463
vt 0.600789 0.700828
vt 0.389487 0.758559
vt 0.260948 0.868343
vt 0.327899 0.756438
vt 0.226850 0.812356
vt 0.184252 0.692126
vt 0.286167 0.670026
vt 0.164451 0.807637
vt 0.137861 0.746024
vt 0.133223 0.671985
vt 0.259511 0.620363
vt 0.066160 0.724952
vt 0.112077 0.629648
vt 0.248037 0.573515
vt 0.044779 0.677409
vt 0.337678 0.560470
vt 0.435847 0.561784
vt 0.436255 0.665916
vt 0.517619 0.674254
vt 0.611764 0.670987
vt 0.620480 0.594747
vt 0.491141 0.618471
vt 0.359781 0.639084
vn 0.941910 0.000000 0.335866
vn 0.941910 0.000000 0.335866
vn 0.864040 0.327337 0.382474
vn 0.891735 0.252748 0.375402
vn 0.884879 0.000000 -0.465820
vn 0.855176 0.289864 -0.429713
vn 0.816972 0.346767 -0.460770
vn 0.884879 0.000000 -0.465820
vn 0.855176 0.289864 -0.429713
vn 0.788525 0.482769 -0.381002
vn 0.789745 0.402160 -0.463218
vn 0.816972 0.346767 -0.460770
vn 0.891735 0.252748 0.375402
vn 0.864040 0.327337 0.382474
vn 0.815474 0.350499 0.460600
vn 0.815468 0.350403 0.460685
vn 0.777522 0.453099 -0.436075
vn 0.816972 0.346767 -0.460770
vn 0.808828 0.289823 -0.511664
vn 0.820131 0.273601 -0.502521
vn 0.816972 0.346767 -0.460770
vn 0.789745 0.402160 -0.463218
vn 0.785072 0.348076 -0.512353
vn 0.808828 0.289823 -0.511664
vn 0.815468 0.350403 0.460685
vn 0.815474 0.350499 0.460600
vn 0.810146 0.298698 0.504423
vn 0.810146 0.298698 0.504423
vn 0.820131 0.273601 -0.502521
vn 0.808828 0.289823 -0.511664
vn 0.829199 0.187034 -0.526733
vn 0.829199 0.187034 -0.526733
vn 0.636727 0.375072 -0.673721
vn 0.636727 0.375072 -0.673721
vn 0.636727 0.375072 -0.673721
vn 0.636727 0.375072 -0.673721
vn -0.177793 0.875365 0.449584
vn -0.177793 0.875365 0.449584
vn -0.177793 0.875365 0.449584
vn -0.177793 0.875365 0.449584
vn -0.396077 0.887098 0.237025
vn -0.396076 0.887098 0.237025
vn -0.396077 0.887098 0.237025
vn -0.396076 0.887098 0.237025
vn -0.410352 0.880574 -0.237068
vn -0.410352 0.880574 -0.237068
vn -0.410352 0.880574 -0.237068
vn -0.410352 0.880574 -0.237068
vn 0.072343 0.915767 -0.395142
vn 0.072343 0.915767 -0.395142
vn 0.072343 0.915767 -0.395142
vn 0.072343 0.915767 -0.395142
vn 0.080249 0.954014 -0.288820
vn 0.080249 0.954014 -0.288820
vn 0.080249 0.954014 -0.288820
vn 0.080249 0.954014 -0.288820
vn -0.071691 0.997054 0.027258
vn -0.071691 0.997054 0.027258
vn -0.071691 0.997054 0.027258
vn -0.071691 0.997054 0.027258
vn 0.010036 0.932365 -0.361378
vn 0.010036 0.932365 -0.361378
vn 0.010036 0.932365 -0.361378
vn 0.010036 0.932365 -0.361378
vn -0.052681 0.968760 -0.242341
vn -0.052681 0.968760 -0.242341
vn -0.052681 0.968760 -0.242341
vn -0.052681 0.968760 -0.242341
vn 0.000196 1.000000 0.000808
vn 0.000196 1.000000 0.000808
vn 0.000196 1.000000 0.000808
vn 0.000196 1.000000 0.000808
vn -0.709880 0.624376 0.325920
vn -0.709880 0.624376 0.325920
vn -0.709880 0.624376 0.325920
vn -0.709880 0.624376 0.325920
vn -0.421048 0.770731 0.478218
vn -0.421048 0.770731 0.478218
vn -0.614425 0.715826 0.331776
vn -0.627610 0.709826 0.319770
vn -0.606922 0.347273 -0.714876
vn -0.606922 0.347273 -0.714876
vn -0.560237 0.395346 -0.727899
vn -0.557704 0.397828 -0.728491
vn -0.571220 0.520647 0.634535
vn -0.571220 0.520647 0.634535
vn -0.571220 0.520647 0.634535
vn -0.571220 0.520647 0.634535
vn -0.627610 0.709826 0.319770
vn -0.614425 0.715826 0.331776
vn -0.961052 0.268686 0.064703
vn -0.930281 0.356653 0.085887
vn -0.557704 0.397828 -0.728491
vn -0.560237 0.395346 -0.727899
vn -0.532851 0.381781 -0.755190
vn -0.528664 0.394376 -0.751653
vn -0.685567 0.000000 0.728010
vn -0.685567 0.000000 0.728010
vn -0.685567 0.000000 0.728010
vn -0.685567 0.000000 0.728010
vn -0.930281 0.356653 0.085887
vn -0.961052 0.268686 0.064703
vn -1.000000 0.000001 0.000000
vn -1.000000 0.000001 0.000000
vn -0.528664 0.394376 -0.751653
vn -0.532851 0.381781 -0.755190
vn -0.543382 0.348325 -0.763810
vn -0.543382 0.348325 -0.763810
vn 0.000000 -1.000000 0.000000
vn 0.000000 -1.000000 0.000000
vn 0.000000 -1.000000 0.000000
vn 0.000000 -1.000000 0.000000
vn 0.000000 -1.000000 0.000000
vn 0.000000 -1.000000 0.000000
vn 0.000000 -1.000000 0.000000
vn 0.000000 -1.000000 0.000000
vn 0.000000 -1.000000 0.000000
vn 0.000000 -1.000000 0.000000
vn 0.000000 -1.000000 0.000000
vn 0.000000 -1.000000 0.000000
vn 0.000000 -1.000000 0.000000
vn 0.000000 -1.000000 0.000000
vn 0.000000 -1.000000 0.000000
vn 0.000000 -1.000000 0.000000
vn 0.000000 -1.000000 0.000000
vn 0.000000 -1.000000 0.000000
vn 0.000000 -1.000000 0.000000
vn 0.000000 -1.000000 0.000000
vn 0.000000 -1.000000 0.000000
vn 0.000000 -1.000000 0.000000
vn 0.000000 -1.000000 0.000000
vn 0.000000 -1.000000 0.000000
vn 0.000000 -1.000000 0.000000
vn 0.000000 -1.000000 0.000000
vn 0.000000 -1.000000 0.000000
vn 0.000000 -1.000000 0.000000
vn 0.000000 -1.000000 0.000000
vn 0.000000 -1.000000 0.000000
vn 0.000000 -1.000000 0.000000
vn 0.000000 -1.000000 0.000000
vn 0.000000 -1.000000 0.000000
vn 0.000000 -1.000000 0.000000
vn 0.000000 -1.000000 0.000000
vn 0.000000 -1.000000 0.000000
vn -0.111192 0.317473 -0.941726
vn -0.067697 0.150620 -0.986271
vn -0.067697 0.150620 -0.986271
vn -0.078984 0.361786 -0.928909
vn -0.072516 0.544511 -0.835613
vn -0.111192 0.317473 -0.941726
vn -0.078984 0.361786 -0.928909
vn -0.038603 0.484694 -0.873831
vn -0.038808 0.598633 -0.800083
vn -0.072516 0.544511 -0.835613
vn -0.038603 0.484694 -0.873831
vn -0.107635 0.532450 -0.839590
vn -0.078984 0.361786 -0.928909
vn -0.151220 0.372367 -0.915683
vn -0.123409 0.341268 -0.931830
vn -0.082786 0.215868 -0.972907
vn -0.038603 0.484694 -0.873831
vn -0.078984 0.361786 -0.928909
vn -0.082786 0.215868 -0.972907
vn 0.070536 0.423763 -0.903022
vn -0.107635 0.532450 -0.839590
vn -0.038603 0.484694 -0.873831
vn -0.152382 0.193442 -0.969206
vn -0.064507 0.199369 -0.977799
vn -0.082786 0.215868 -0.972907
vn -0.123409 0.341268 -0.931830
vn -0.083997 0.296509 -0.951329
vn -0.128688 0.033664 -0.991114
vn -0.152382 0.193442 -0.969206
vn -0.082786 0.215868 -0.972907
vn -0.128688 0.033664 -0.991114
vn -0.079461 -0.012022 -0.996765
vn -0.064507 0.199369 -0.977799
vn -0.152382 0.193442 -0.969206
vn -0.079461 -0.012022 -0.996765
vn 0.041102 0.131374 -0.990481
vn -0.089106 0.052963 0.994613
vn -0.026424 0.020458 0.999442
vn 0.085091 0.109092 0.990383
vn -0.075453 0.140440 0.987210
vn -0.026424 0.020458 0.999442
vn 0.068794 -0.033294 0.997075
vn 0.065225 0.186150 0.980354
vn 0.085091 0.109092 0.990383
vn 0.068794 -0.033294 0.997075
vn -0.001669 0.000000 0.999999
vn -0.001669 0.000000 0.999999
vn 0.065225 0.186150 0.980354
vn -0.075453 0.140440 0.987210
vn 0.085091 0.109092 0.990383
vn -0.071783 0.270569 0.960021
vn -0.059359 0.320682 0.945325
vn 0.085091 0.109092 0.990383
vn 0.065225 0.186150 0.980354
vn 0.070505 0.282174 0.956769
vn 0.258900 0.318805 0.911775
vn 0.065225 0.186150 0.980354
vn 0.039358 0.349116 0.936253
vn 0.016929 0.296465 0.954894
vn 0.070505 0.282174 0.956769
vn -0.059359 0.320682 0.945325
vn -0.071783 0.270569 0.960021
vn -0.087117 0.206423 0.974577
vn -0.087117 0.206423 0.974577
vn 0.258900 0.318805 0.911775
vn 0.070505 0.282174 0.956769
vn 0.100853 0.231895 0.967499
vn 0.367804 0.197015 0.908793
vn 0.070505 0.282174 0.956769
vn 0.016929 0.296465 0.954894
vn -0.006359 0.240820 0.970549
vn 0.100853 0.231895 0.967499
vn -0.111402 0.392327 0.913055
vn -0.093217 0.259830 0.961145
vn -0.085768 0.207787 0.974407
vn -0.085768 0.207787 0.974407
vn -0.124079 0.183542 0.975150
vn -0.140399 0.472608 0.870017
vn -0.093217 0.259830 0.961145
vn -0.111402 0.392327 0.913055
vn -0.109948 0.015384 0.993818
vn -0.109948 0.015384 0.993818
vn -0.140399 0.472608 0.870017
vn -0.124079 0.183542 0.975150
vn 0.000000 -1.000000 0.000000
vn 0.000000 -1.000000 0.000000
vn 0.000000 -1.000000 0.000000
vn 0.000000 -1.000000 0.000000
vn 0.000000 -1.000000 0.000000
vn 0.000000 -1.000000 0.000000
vn 0.000000 -1.000000 0.000000
vn 0.000000 -1.000000 0.000000
vn 0.000000 -1.000000 0.000000
vn 0.000000 -1.000000 0.000000
vn 0.000000 -1.000000 0.000000
vn 0.000000 -1.000000 0.000000
vn -0.072478 0.470623 -0.879353
vn -0.072478 0.470623 -0.879353
vn -0.072478 0.470623 -0.879353
vn -0.072478 0.470623 -0.879353
vn -0.110907 0.191401 -0.975226
vn -0.150912 0.357222 -0.921747
vn -0.150912 0.357222 -0.921747
vn -0.119953 0.228163 -0.966205
vn -0.077726 0.059694 -0.995186
vn -0.110907 0.191401 -0.975226
vn -0.119953 0.228163 -0.966205
vn -0.077726 0.059694 -0.995186
vn 0.000170 1.000000 0.000390
vn 0.000170 1.000000 0.000390
vn 0.000170 1.000000 0.000390
vn 0.000170 1.000000 0.000390
vn -0.071283 0.992352 -0.100778
vn -0.071283 0.992352 -0.100778
vn -0.071283 0.992352 -0.100778
vn -0.071283 0.992352 -0.100778
vn 0.036836 0.902718 -0.428654
vn 0.036836 0.902718 -0.428654
vn 0.036836 0.902718 -0.428654
vn 0.036836 0.902718 -0.428654
s off
g polySurface2 Rocks:Mesh
usemtl initialShadingGroup
f 1/1/1 2/4/2 6/10/3 5/14/4
f 2/2/5 3/3/6 7/5/7 6/6/8
f 3/3/9 4/7/10 8/8/11 7/5/12
f 5/14/13 6/10/14 10/17/15 9/18/16
f 6/6/17 7/5/18 11/9/19 10/11/20
f 7/5/21 8/8/22 12/12/23 11/9/24
f 9/18/25 10/17/26 14/21/27 13/22/28
f 10/11/29 11/9/30 15/13/31 14/15/32
f 11/9/33 12/12/34 16/16/35 15/13/36
f 13/22/37 14/21/38 18/25/39 17/26/40
f 14/21/41 15/29/42 19/30/43 18/25/44
f 15/13/45 16/16/46 20/19/47 19/20/48
f 17/26/49 18/25/50 22/31/51 21/32/52
f 18/25/53 19/30/54 23/37/55 22/31/56
f 19/20/57 20/19/58 24/23/59 23/24/60
f 21/32/61 22/31/62 68/38/63 57/73/64
f 22/31/65 23/37/66 67/74/67 68/38/68
f 23/24/69 24/23/70 66/27/71 67/28/72
f 25/75/73 26/76/74 30/77/75 29/78/76
f 26/76/77 27/79/78 31/80/79 30/77/80
f 27/33/81 28/34/82 32/35/83 31/36/84
f 29/78/85 30/77/86 34/81/87 33/82/88
f 30/77/89 31/80/90 35/83/91 34/81/92
f 31/36/93 32/35/94 36/39/95 35/40/96
f 33/82/97 34/81/98 38/84/99 37/85/100
f 34/81/101 35/83/102 39/86/103 38/84/104
f 35/40/105 36/39/106 40/61/107 39/62/108
f 60/41/109 61/42/110 42/43/111 41/44/112
f 61/42/113 62/45/114 43/46/115 42/43/116
f 62/45/117 63/47/118 44/48/119 43/46/120
f 41/44/121 42/43/122 46/49/123 45/50/124
f 42/43/125 43/46/126 47/51/127 46/49/128
f 43/46/129 44/48/130 48/52/131 47/51/132
f 45/50/133 46/49/134 2/53/135 1/54/136
f 46/49/137 47/51/138 3/55/139 2/53/140
f 47/51/141 48/52/142 4/56/143 3/55/144
f 44/63/145 63/64/146 64/65/147 49/66/148
f 48/67/149 44/63/150 49/66/151 50/68/152
f 4/7/153 48/67/154 50/68/155 8/8/156
f 49/66/157 64/65/158 65/69/159 51/70/160
f 50/68/161 49/66/162 51/70/163 52/71/164
f 8/8/165 50/68/166 52/71/167 12/12/168
f 51/70/169 65/69/170 66/27/171 24/23/172
f 52/71/173 51/70/174 24/23/175 20/19/176
f 12/12/177 52/71/178 20/19/179 16/16/180
f 60/87/181 41/88/182 53/93/183 59/94/184
f 41/88/185 45/92/186 54/91/187 53/93/188
f 45/92/189 1/1/190 5/14/191 54/91/192
f 59/94/193 53/93/194 55/90/195 58/89/196
f 53/93/197 54/91/198 56/72/199 55/90/200
f 54/91/201 5/14/202 9/18/203 56/72/204
f 58/89/205 55/90/206 21/32/207 57/73/208
f 55/90/209 56/72/210 17/26/211 21/32/212
f 56/72/213 9/18/214 13/22/215 17/26/216
f 29/78/217 58/89/218 57/73/219 25/75/220
f 33/82/221 59/94/222 58/89/223 29/78/224
f 37/85/225 60/87/226 59/94/227 33/82/228
f 37/57/229 38/58/230 61/42/231 60/41/232
f 38/58/233 39/59/234 62/45/235 61/42/236
f 39/59/237 40/60/238 63/47/239 62/45/240
f 64/65/241 63/64/242 40/61/243 36/39/244
f 65/69/245 64/65/246 36/39/247 32/35/248
f 66/27/249 65/69/250 32/35/251 28/34/252
f 67/28/253 66/27/254 28/34/255 27/33/256
f 68/38/257 67/74/258 27/79/259 26/76/260
f 57/73/261 68/38/262 26/76/263 25/75/264
